<svg width="455" height="422" viewBox="0 0 455 422" fill="none" xmlns="http://www.w3.org/2000/svg">
<path fill-rule="evenodd" clip-rule="evenodd" d="M338.739 -225.569C395.845 -228.108 455.365 -230.338 505.859 -203.545C557.017 -176.4 590.423 -126.263 619.872 -76.3964C649.533 -26.1714 678.508 27.6115 676.803 85.9161C675.114 143.656 640.754 193.608 610.537 242.839C580.985 290.985 550.426 339.664 502.6 369.733C453.892 400.355 395.996 408.078 338.739 413.72C276.681 419.834 210.571 432.476 155.11 403.97C99.0505 375.157 65.8189 316.074 38.3685 259.335C12.1766 205.197 2.93754 146.033 1.23623 85.9161C-0.502261 24.4851 -5.10469 -41.7381 28.39 -93.2638C61.533 -144.249 124.045 -165.208 179.984 -189.056C230.8 -210.719 283.552 -223.115 338.739 -225.569Z" fill="#303F9F"/>
</svg>
