<svg width="1028" height="953" viewBox="0 0 1028 953" fill="none" xmlns="http://www.w3.org/2000/svg">
<path fill-rule="evenodd" clip-rule="evenodd" d="M519.189 57.0116C606.68 72.0627 692.923 79.2356 770.756 121.957C858.298 170.007 948.238 224.581 989.899 315.377C1034.09 411.68 1042.22 527.369 1001.7 625.274C962.503 719.98 863.447 768.211 778.671 825.76C696.985 881.212 617.806 957.16 519.189 952.822C421.746 948.536 358.524 855.296 275.771 803.638C184.165 746.454 47.1633 735.33 8.92859 634.297C-29.2488 533.415 65.4224 434.291 96.9588 331.137C129.282 225.409 103.105 83.2281 195.802 23.0463C289.008 -37.4658 409.689 38.1741 519.189 57.0116Z" fill="#303F9F"/>
</svg>
